<?xml version="1.0" standalone="no"?>
<!DOCTYPE svg PUBLIC "-//W3C//DTD SVG 20010904//EN"
 "http://www.w3.org/TR/2001/REC-SVG-20010904/DTD/svg10.dtd">
<svg version="1.0" xmlns="http://www.w3.org/2000/svg"
 width="169.000000pt" height="169.000000pt" viewBox="0 0 169.000000 169.000000"
 preserveAspectRatio="xMidYMid meet">
<metadata>
Created by potrace 1.11, written by Peter Selinger 2001-2013
</metadata>
<g transform="translate(0.000000,169.000000) scale(0.100000,-0.100000)"
fill="#000000" stroke="none">
<path d="M140 1500 l0 -140 28 -1 c32 -1 233 -1 247 0 8 1 12 215 6 274 -1 4
-64 7 -141 7 l-140 0 0 -140z"/>
<path d="M707 1493 c-2 -5 -4 -66 -3 -136 1 -106 -2 -130 -14 -136 -8 -4 -72
-6 -141 -6 l-127 1 0 -423 c0 -311 3 -423 12 -424 15 -1 204 -1 241 0 l30 1 0
138 0 137 281 5 282 5 0 423 0 422 -278 0 c-154 0 -281 -3 -283 -7z m268 -285
c7 -4 11 -58 10 -140 l0 -133 -140 0 -140 0 -1 135 c0 74 1 138 2 141 4 8 257
5 269 -3z"/>
<path d="M1409 1483 c-1 -23 -1 -224 0 -240 1 -9 37 -12 140 -11 l140 1 0 134
0 133 -140 0 c-125 0 -139 -2 -140 -17z"/>
<path d="M0 934 l0 -284 140 0 c126 0 140 2 141 18 1 24 1 514 0 532 -1 13
-23 16 -141 17 l-140 2 0 -285z"/>
<path d="M1409 1198 c0 -7 -1 -132 -2 -278 l0 -265 141 -3 141 -3 0 281 0 280
-140 0 c-104 0 -139 -3 -140 -12z"/>
<path d="M800 570 c-13 -8 -13 -10 2 -10 9 0 20 5 23 10 8 13 -5 13 -25 0z"/>
<path d="M1065 570 c-16 -6 -13 -8 13 -7 17 0 32 1 32 2 0 8 -28 11 -45 5z"/>
<path d="M771 528 c-1 -46 0 -48 27 -47 26 0 26 1 5 9 -13 5 -23 16 -23 24 0
9 8 13 23 10 19 -4 20 -3 3 4 -11 5 -23 17 -27 28 -5 13 -8 4 -8 -28z"/>
<path d="M847 563 c-10 -9 -8 -55 2 -72 10 -15 51 -6 51 11 0 7 -5 6 -15 -2
-8 -6 -19 -9 -25 -5 -14 9 -13 62 3 68 6 3 7 6 1 6 -6 1 -14 -2 -17 -6z"/>
<path d="M880 560 c0 -5 5 -10 11 -10 5 0 7 5 4 10 -3 6 -8 10 -11 10 -2 0 -4
-4 -4 -10z"/>
<path d="M914 544 c-8 -33 6 -59 32 -59 15 0 19 7 19 40 0 34 -4 40 -22 43
-17 3 -24 -3 -29 -24z m44 -16 c-4 -39 -25 -48 -34 -14 -7 29 1 46 22 46 11 0
14 -9 12 -32z"/>
<path d="M992 528 c-2 -46 -1 -48 26 -47 22 1 23 2 5 6 -18 3 -23 13 -26 46
l-4 42 -1 -47z"/>
<path d="M1057 528 c-9 -31 3 -48 32 -47 25 1 25 1 3 7 -27 8 -31 24 -8 32 14
4 13 7 -3 17 -16 10 -20 9 -24 -9z"/>
<path d="M770 415 c0 -41 2 -45 24 -45 26 0 40 14 41 40 1 29 -16 50 -40 50
-23 0 -25 -4 -25 -45z m40 0 c0 -14 -4 -25 -10 -25 -5 0 -10 11 -10 25 0 14 5
25 10 25 6 0 10 -11 10 -25z"/>
<path d="M840 445 c0 -8 5 -15 10 -15 6 0 10 7 10 15 0 8 -4 15 -10 15 -5 0
-10 -7 -10 -15z"/>
<path d="M874 418 c1 -57 21 -60 22 -3 0 28 -4 45 -11 45 -8 0 -12 -16 -11
-42z"/>
<path d="M910 409 c0 -31 4 -48 10 -44 6 3 10 14 10 23 1 16 2 16 14 0 21 -28
32 -21 30 20 -2 56 -4 58 -19 38 -13 -17 -15 -17 -21 -3 -12 33 -24 16 -24
-34z"/>
<path d="M990 409 c0 -31 4 -48 10 -44 6 3 10 13 10 21 0 8 7 14 15 14 8 0 15
7 15 15 0 9 -6 12 -15 9 -8 -4 -15 -1 -15 5 0 6 9 11 20 11 11 0 20 5 20 10 0
6 -13 10 -30 10 -29 0 -30 -1 -30 -51z"/>
<path d="M1060 440 c-6 -11 -8 -31 -4 -45 5 -21 12 -25 33 -23 20 2 27 9 29
31 6 50 -37 77 -58 37z m36 -35 c-8 -23 -25 -9 -19 16 4 13 9 17 16 10 5 -5 7
-17 3 -26z"/>
<path d="M1130 410 c0 -32 4 -49 10 -45 6 3 10 14 10 23 1 16 2 16 14 0 17
-22 71 -25 63 -4 -6 16 16 12 40 -6 19 -15 23 7 14 77 -1 6 -10 0 -21 -13 -18
-22 -19 -22 -25 -2 -13 41 -35 17 -29 -33 2 -18 -1 -27 -9 -24 -7 2 -12 19
-12 38 0 30 -3 34 -27 37 -27 3 -28 2 -28 -48z m40 20 c0 -5 -4 -10 -10 -10
-5 0 -10 5 -10 10 0 6 5 10 10 10 6 0 10 -4 10 -10z"/>
<path d="M1307 415 c-9 -24 -12 -47 -7 -50 4 -3 10 0 12 7 4 10 10 10 31 1 15
-7 27 -11 27 -10 0 16 -34 97 -40 97 -4 0 -15 -20 -23 -45z"/>
<path d="M1368 454 c-4 -3 -1 -13 7 -20 8 -8 12 -25 9 -40 -3 -18 -1 -25 8
-22 7 3 13 18 13 34 0 19 6 30 16 32 13 2 16 -4 14 -32 -1 -24 2 -36 11 -36 9
0 12 13 11 42 -3 42 -3 42 -43 46 -22 2 -43 0 -46 -4z"/>
<path d="M1483 453 c-16 -6 -17 -65 -2 -80 14 -14 49 -5 49 13 0 8 5 14 10 14
6 0 10 -6 10 -14 0 -21 27 -27 45 -10 17 17 21 84 5 84 -5 0 -10 -6 -11 -12
-1 -7 -2 -21 -3 -30 -2 -25 -21 -22 -22 2 -3 38 -4 41 -14 35 -5 -3 -10 -16
-11 -28 -1 -20 -2 -20 -8 3 -7 25 -25 33 -48 23z m18 -56 c-8 -8 -11 -5 -11 9
0 27 14 41 18 19 2 -9 -1 -22 -7 -28z"/>
<path d="M1627 453 c-4 -3 -7 -24 -7 -45 0 -31 3 -38 20 -38 11 0 23 0 27 -1
4 0 9 5 12 12 2 8 -2 10 -12 6 -9 -3 -19 -2 -22 3 -4 6 1 10 9 10 9 0 16 7 16
16 0 8 -4 12 -10 9 -5 -3 -10 -1 -10 4 0 6 7 11 15 11 8 0 15 5 15 10 0 11
-43 14 -53 3z"/>
<path d="M0 223 c0 -9 194 -12 845 -12 664 -1 845 2 845 12 0 9 -182 12 -845
12 -651 0 -845 -3 -845 -12z"/>
<path d="M7 153 c-13 -13 -7 -61 9 -67 18 -7 34 0 34 16 0 7 -5 6 -15 -2 -12
-10 -16 -9 -21 4 -9 23 4 49 21 42 8 -3 15 -1 15 4 0 11 -33 14 -43 3z"/>
<path d="M297 154 c-4 -4 -7 -23 -6 -43 l1 -36 9 33 c11 36 9 58 -4 46z"/>
<path d="M820 151 c0 -5 -9 -11 -19 -14 -13 -3 -18 -12 -16 -23 2 -11 4 -22 4
-26 1 -4 10 -6 21 -5 16 1 20 8 20 39 0 21 -2 38 -5 38 -3 0 -5 -4 -5 -9z m-8
-53 c-9 -9 -12 -7 -12 12 0 19 3 21 12 12 9 -9 9 -15 0 -24z"/>
<path d="M1330 127 c0 -20 4 -38 9 -41 10 -7 8 61 -3 71 -3 3 -6 -10 -6 -30z"/>
<path d="M205 137 c-3 -7 -1 -24 5 -38 8 -19 9 -20 8 -4 -2 11 1 25 5 32 4 6
3 14 -3 18 -6 3 -13 0 -15 -8z"/>
<path d="M509 147 c-1 -4 -1 -16 -1 -27 0 -33 2 -40 10 -40 9 0 8 57 -1 67 -4
3 -7 3 -8 0z"/>
<path d="M77 126 c-7 -18 16 -51 30 -43 16 10 10 51 -8 55 -9 2 -19 -4 -22
-12z m29 -16 c0 -11 -4 -20 -8 -20 -4 0 -8 9 -8 20 0 11 4 20 8 20 4 0 8 -9 8
-20z"/>
<path d="M145 130 c-8 -13 5 -13 25 0 13 8 13 10 -2 10 -9 0 -20 -4 -23 -10z"/>
<path d="M250 111 c0 -17 2 -31 4 -31 8 0 13 51 5 56 -5 3 -9 -9 -9 -25z"/>
<path d="M335 115 c2 -37 15 -43 15 -7 0 18 -4 32 -8 32 -4 0 -7 -11 -7 -25z"/>
<path d="M376 125 c-3 -8 -3 -15 0 -15 3 0 12 7 20 15 13 13 13 15 1 15 -8 0
-17 -7 -21 -15z"/>
<path d="M454 124 c9 -8 13 -21 9 -27 -4 -7 -9 -4 -13 8 -6 17 -7 17 -13 1 -8
-20 19 -34 35 -18 14 14 0 52 -18 52 -13 0 -13 -2 0 -16z"/>
<path d="M554 125 c-4 -8 -4 -22 0 -30 6 -17 36 -21 36 -4 0 5 -4 8 -9 4 -14
-8 -21 9 -10 25 6 10 9 11 9 3 0 -7 4 -13 10 -13 5 0 7 7 4 15 -4 8 -13 15
-20 15 -8 0 -17 -7 -20 -15z"/>
<path d="M621 118 c-1 -30 12 -43 31 -31 14 9 19 53 6 53 -4 0 -8 -12 -8 -27
0 -29 -15 -22 -23 12 -4 15 -5 14 -6 -7z"/>
<path d="M691 108 c1 -21 3 -26 6 -13 3 11 12 26 21 33 14 11 13 12 -6 12 -18
0 -22 -5 -21 -32z"/>
<path d="M855 120 c-3 -11 -3 -24 0 -30 8 -13 35 -13 35 1 0 5 -4 8 -9 4 -5
-3 -12 -1 -16 5 -3 5 3 10 14 10 14 0 19 5 15 15 -9 21 -32 19 -39 -5z"/>
<path d="M967 133 c-11 -10 -8 -41 4 -49 6 -3 16 -1 22 6 9 10 9 11 -1 6 -17
-10 -28 24 -11 35 8 5 9 9 3 9 -6 0 -14 -3 -17 -7z"/>
<path d="M1027 133 c-11 -10 -8 -41 5 -49 14 -9 38 23 31 42 -5 15 -25 19 -36
7z m23 -24 c0 -11 -4 -17 -10 -14 -5 3 -10 13 -10 21 0 8 5 14 10 14 6 0 10
-9 10 -21z"/>
<path d="M1091 108 c0 -18 3 -26 6 -18 14 43 16 44 23 15 l8 -30 1 28 c1 18 6
27 14 24 6 -2 11 -14 9 -27 -2 -12 1 -20 6 -16 5 3 9 16 8 28 -1 19 -7 24 -38
26 -37 3 -38 2 -37 -30z"/>
<path d="M1190 129 c0 -6 6 -9 14 -6 16 6 30 -19 16 -28 -6 -4 -10 -1 -10 4 0
6 -4 11 -9 11 -5 0 -8 -12 -8 -27 0 -16 2 -22 4 -15 3 6 11 12 18 12 19 0 25
13 18 38 -5 22 -43 32 -43 11z"/>
<path d="M1265 120 c-3 -11 -3 -24 0 -30 8 -14 32 -13 41 2 4 6 3 8 -2 5 -17
-10 -34 7 -24 23 7 10 10 11 10 3 0 -7 4 -13 10 -13 5 0 7 7 4 15 -9 21 -32
19 -39 -5z"/>
<path d="M1382 127 c-9 -10 -8 -18 2 -33 8 -10 18 -16 22 -11 4 4 2 13 -4 19
-18 18 -14 32 5 17 14 -12 16 -12 12 0 -7 21 -24 24 -37 8z"/>
<path d="M1447 121 c-2 -10 -1 -25 4 -32 6 -10 9 -5 9 16 0 31 14 25 23 -10 3
-13 5 -9 6 13 1 25 -3 32 -18 32 -10 0 -21 -9 -24 -19z"/>
<path d="M1517 121 c-5 -19 9 -41 25 -41 4 0 8 5 8 11 0 5 -4 8 -9 4 -17 -10
-21 13 -5 29 13 13 13 16 1 16 -8 0 -17 -9 -20 -19z"/>
<path d="M1583 129 c-8 -8 -9 -18 -2 -31 10 -19 39 -25 39 -8 0 5 -6 7 -13 4
-7 -2 -13 4 -14 16 -1 11 3 20 8 20 6 0 7 -4 4 -10 -3 -5 -1 -10 5 -10 14 0 8
22 -6 27 -5 2 -15 -2 -21 -8z"/>
<path d="M1646 125 c-3 -8 -3 -15 0 -15 3 0 12 7 20 15 13 13 13 15 1 15 -8 0
-17 -7 -21 -15z"/>
<path d="M1670 107 c0 -10 -4 -15 -10 -12 -5 3 -10 1 -10 -4 0 -13 26 -15 34
-3 2 4 1 14 -5 22 -7 12 -9 12 -9 -3z"/>
<path d="M145 101 c-3 -5 -1 -12 5 -16 5 -3 10 1 10 9 0 18 -6 21 -15 7z"/>
<path d="M380 90 c18 -12 30 -13 30 -2 0 4 -10 9 -22 9 -18 2 -20 0 -8 -7z"/>
</g>
</svg>
